# xmcd CD database file
#
# Track frame offsets:
#	150
#	20028
#	45609
#	67254
#	87596
#	101749
#	125294
#	143204
#	162269
#	183159
#	197479
#	215221
#
# Disc length: 3177 seconds
#
# Revision: 1
# Processed by: cddbd v1.5.2PL0 Copyright (c) Steve Scherf et al.
# Submitted via: CDex 1.51
#
DISCID=b40c670c
DTITLE=Marvin Sease - Who's Got The Power
DYEAR=2008
DGENRE=Blues
TTITLE0=Power of Coochie
TTITLE1=I'm Coming Home
TTITLE2=Quiet As It's Kept
TTITLE3=She's My Woman
TTITLE4=I Love You
TTITLE5=I Do Baby
TTITLE6=My Dog Won't Bark
TTITLE7=Gone On
TTITLE8=Denying Our Love
TTITLE9=I Can't Let You Go
TTITLE10=I'll Take Care of You
TTITLE11=Blues Town
EXTD=YEAR: 2008
EXTT0=
EXTT1=
EXTT2=
EXTT3=
EXTT4=
EXTT5=
EXTT6=
EXTT7=
EXTT8=
EXTT9=
EXTT10=
EXTT11=
PLAYORDER=
